<?xml version="1.0" encoding="UTF-8"?>
<svg id="Layer_2" data-name="Layer 2" xmlns="http://www.w3.org/2000/svg" viewBox="0 0 83.79 28.75">
  <g id="Layer_1-2">
    <path d="M6.27.42H0s0,18.08,0,18.08c0,5.42,4.41,9.82,9.82,9.82s9.82-4.41,9.82-9.82-4.41-9.82-9.82-9.82c-1.25,0-2.45.24-3.55.66V.42ZM5.83,18.5c0-2.2,1.79-3.99,3.99-3.99s3.99,1.79,3.99,3.99-1.79,3.99-3.99,3.99-3.99-1.79-3.99-3.99Z" style="fill: #0179ca;"/>
    <path d="M54.1,3.64c0,2.01,1.63,3.64,3.64,3.64s3.64-1.63,3.64-3.64S59.75,0,57.74,0s-3.64,1.63-3.64,3.64Z" style="fill: #0179ca;"/>
    <path d="M54.61,27.91h6.26s0-18.08,0-18.08h-6.26s0,18.08,0,18.08Z" style="fill: #0179ca;"/>
    <path d="M45.08,27.91h6.26s0-27.2,0-27.2h-6.26s0,27.2,0,27.2Z" style="fill: #0179ca;"/>
    <path d="M70.42.84h-6.27s0,18.08,0,18.08c0,5.42,4.41,9.82,9.82,9.82s9.82-4.41,9.82-9.82-4.41-9.82-9.82-9.82c-1.25,0-2.45.24-3.55.66V.84ZM69.98,18.93c0-2.2,1.79-3.99,3.99-3.99s3.99,1.79,3.99,3.99-1.79,3.99-3.99,3.99-3.99-1.79-3.99-3.99Z" style="fill: #0179ca;"/>
    <path d="M22.15.42h6.26v16.24l6.55-7.97h7.76l-8.38,9.27,8.72,9.65h-7.93l-6.71-8.16v8.16h-6.26V.42Z" style="fill: #0179ca;"/>
  </g>
</svg>